<svg xmlns="http://www.w3.org/2000/svg" xmlns:xlink="http://www.w3.org/1999/xlink" width="500" zoomAndPan="magnify" viewBox="0 0 375 374.999991" height="500" preserveAspectRatio="xMidYMid meet" version="1.0"><defs><g/><clipPath id="ead93aefce"><path d="M 4.726562 5.125 L 369.875 5.125 L 369.875 370.273438 L 4.726562 370.273438 Z M 4.726562 5.125 " clip-rule="nonzero"/></clipPath><clipPath id="fa5945b2a0"><path d="M 187.300781 5.125 C 86.46875 5.125 4.726562 86.867188 4.726562 187.699219 C 4.726562 288.53125 86.46875 370.273438 187.300781 370.273438 C 288.132812 370.273438 369.875 288.53125 369.875 187.699219 C 369.875 86.867188 288.132812 5.125 187.300781 5.125 Z M 187.300781 5.125 " clip-rule="nonzero"/></clipPath><clipPath id="395e76014d"><path d="M 24 25.359375 L 355 25.359375 L 355 350 L 24 350 Z M 24 25.359375 " clip-rule="nonzero"/></clipPath><clipPath id="00f11f2266"><path d="M 12.355469 167 L 98.535156 167 L 98.535156 224.269531 L 12.355469 224.269531 Z M 12.355469 167 " clip-rule="nonzero"/></clipPath><clipPath id="1f7d09af71"><path d="M 12.355469 138.089844 L 98.535156 138.089844 L 98.535156 191 L 12.355469 191 Z M 12.355469 138.089844 " clip-rule="nonzero"/></clipPath></defs><rect x="-37.5" width="450" fill="#ffffff" y="-37.499999" height="449.999989" fill-opacity="1"/><rect x="-37.5" width="450" fill="#ffffff" y="-37.499999" height="449.999989" fill-opacity="1"/><g clip-path="url(#ead93aefce)"><g clip-path="url(#fa5945b2a0)"><path fill="#ffffff" d="M 4.726562 5.125 L 369.875 5.125 L 369.875 370.273438 L 4.726562 370.273438 Z M 4.726562 5.125 " fill-opacity="1" fill-rule="nonzero"/></g></g><g clip-path="url(#395e76014d)"><path fill="#8dc740" d="M 274.585938 140.765625 C 273.503906 139.683594 272.097656 139.140625 270.667969 139.140625 C 269.261719 139.140625 267.855469 139.683594 266.773438 140.765625 L 255.019531 152.492188 L 215.847656 113.320312 L 225.433594 103.734375 C 231.796875 97.371094 234.632812 88.605469 233.183594 79.710938 C 231.753906 70.816406 226.300781 63.394531 218.226562 59.367188 L 174.25 37.378906 L 174.554688 37.074219 L 253.136719 52.789062 C 262.8125 54.734375 271.640625 59.453125 278.609375 66.445312 L 309.863281 97.675781 L 298.089844 109.425781 C 297.050781 110.464844 296.488281 111.871094 296.488281 113.34375 C 296.488281 114.792969 297.050781 116.222656 298.089844 117.261719 L 309.839844 129.011719 C 311.160156 130.3125 313.042969 130.894531 314.859375 130.527344 L 328.625 127.777344 C 330.464844 127.390625 332.328125 127.972656 333.644531 129.273438 L 341.199219 136.847656 L 294.191406 183.855469 L 286.617188 176.300781 C 285.296875 174.980469 284.734375 173.121094 285.101562 171.300781 L 287.875 157.515625 C 288.21875 155.695312 287.65625 153.8125 286.335938 152.515625 Z M 68.960938 322.882812 C 62.511719 329.355469 51.953125 329.355469 45.457031 322.90625 C 38.988281 316.390625 38.988281 305.828125 45.457031 299.378906 L 215.824219 128.992188 L 239.351562 152.515625 Z M 280.796875 250.273438 C 294.410156 248.671875 307.761719 253.28125 317.457031 262.914062 C 328.777344 274.253906 332.976562 290.65625 328.90625 305.722656 L 304.472656 281.285156 C 303.433594 280.25 302.027344 279.664062 300.535156 279.664062 L 277.050781 279.664062 C 274 279.664062 271.511719 282.152344 271.511719 285.203125 L 271.511719 308.6875 C 271.511719 310.15625 272.097656 311.585938 273.132812 312.625 L 297.570312 337.058594 C 282.503906 341.105469 266.101562 336.929688 254.761719 325.609375 C 245.128906 315.9375 240.519531 302.5625 242.121094 288.96875 C 243.160156 280.3125 240.28125 271.894531 234.265625 265.941406 L 187.929688 219.605469 L 211.453125 196.082031 L 257.769531 242.394531 C 263.742188 248.457031 272.183594 251.3125 280.796875 250.273438 Z M 88.441406 131.566406 C 87.269531 131.566406 86.101562 131.632812 84.933594 131.761719 C 71.300781 133.363281 57.945312 128.753906 48.273438 119.121094 C 36.953125 107.78125 32.753906 91.375 36.824219 76.3125 L 61.257812 100.746094 C 62.296875 101.785156 63.722656 102.371094 65.195312 102.371094 L 88.679688 102.371094 C 91.730469 102.371094 94.21875 99.882812 94.21875 96.832031 L 94.21875 73.347656 C 94.21875 71.875 93.632812 70.449219 92.59375 69.410156 L 68.160156 44.976562 C 83.222656 40.90625 99.628906 45.082031 110.949219 56.425781 C 120.601562 66.097656 125.210938 79.472656 123.628906 93.066406 C 122.570312 101.722656 125.425781 110.140625 131.464844 116.09375 L 172.261719 156.886719 L 148.734375 180.414062 L 107.960938 139.636719 C 102.789062 134.402344 95.820312 131.566406 88.441406 131.566406 Z M 278.785156 184.136719 L 290.273438 195.605469 C 291.359375 196.6875 292.765625 197.230469 294.191406 197.230469 C 295.597656 197.230469 297.007812 196.6875 298.089844 195.605469 L 352.953125 140.765625 C 355.117188 138.601562 355.117188 135.09375 352.953125 132.929688 L 341.480469 121.460938 C 337.542969 117.5 331.9375 115.8125 326.460938 116.894531 L 315.597656 119.078125 L 309.839844 113.34375 L 321.613281 101.589844 C 322.652344 100.554688 323.238281 99.125 323.238281 97.675781 C 323.238281 96.203125 322.652344 94.796875 321.613281 93.757812 L 286.464844 58.589844 C 277.917969 50.0625 267.140625 44.304688 255.324219 41.925781 L 173.820312 25.628906 C 172 25.257812 170.117188 25.84375 168.820312 27.140625 L 160.984375 34.976562 C 159.730469 36.230469 159.144531 38.027344 159.425781 39.78125 C 159.707031 41.554688 160.832031 43.050781 162.414062 43.851562 L 213.273438 69.28125 C 218.097656 71.703125 221.386719 76.160156 222.253906 81.484375 C 223.121094 86.832031 221.429688 92.089844 217.601562 95.898438 L 204.074219 109.425781 C 203.035156 110.464844 202.453125 111.871094 202.453125 113.34375 C 202.453125 114.792969 203.035156 116.222656 204.074219 117.261719 L 207.992188 121.15625 L 180.09375 149.054688 L 139.277344 108.234375 C 135.683594 104.6875 133.976562 99.644531 134.625 94.363281 C 136.617188 77.375 130.835938 60.6875 118.804688 48.589844 C 102.203125 31.988281 76.863281 27.660156 55.761719 37.8125 C 54.136719 38.589844 52.988281 40.105469 52.6875 41.878906 C 52.382812 43.65625 52.96875 45.453125 54.222656 46.730469 L 83.136719 75.621094 L 83.136719 91.289062 L 67.46875 91.289062 L 38.578125 62.375 C 37.300781 61.121094 35.503906 60.558594 33.726562 60.839844 C 31.953125 61.140625 30.4375 62.289062 29.660156 63.914062 C 19.507812 85.015625 23.839844 110.355469 40.4375 126.957031 C 52.558594 138.988281 69.222656 144.769531 86.253906 142.777344 C 91.492188 142.128906 96.535156 143.835938 100.105469 147.453125 L 140.902344 188.246094 L 37.601562 291.546875 C 26.847656 302.300781 26.824219 319.898438 37.625 330.738281 C 43.035156 336.128906 50.132812 338.8125 57.230469 338.8125 C 64.332031 338.8125 71.429688 336.105469 76.796875 330.738281 L 180.09375 227.441406 L 226.453125 273.796875 C 230.046875 277.347656 231.753906 282.390625 231.105469 287.671875 C 229.113281 304.660156 234.871094 321.324219 246.925781 333.445312 C 257.53125 344.050781 271.726562 349.65625 286.097656 349.65625 C 294.191406 349.65625 302.375 347.878906 309.992188 344.222656 C 311.59375 343.445312 312.738281 341.929688 313.042969 340.152344 C 313.347656 338.378906 312.761719 336.582031 311.507812 335.304688 L 282.59375 306.414062 L 282.59375 290.746094 L 298.261719 290.746094 L 327.152344 319.660156 C 328.429688 320.914062 330.25 321.476562 332 321.195312 C 333.777344 320.890625 335.292969 319.746094 336.070312 318.121094 C 346.21875 297.019531 341.890625 271.679688 325.292969 255.078125 C 313.195312 243.046875 296.507812 237.265625 279.476562 239.257812 C 274.238281 239.90625 269.21875 238.199219 265.625 234.582031 L 219.289062 188.246094 L 247.1875 160.351562 L 251.082031 164.265625 C 253.246094 166.433594 256.75 166.433594 258.914062 164.265625 L 270.667969 152.515625 L 276.425781 158.25 L 274.238281 169.117188 C 273.132812 174.570312 274.84375 180.195312 278.785156 184.136719 " fill-opacity="1" fill-rule="nonzero"/></g><path stroke-linecap="butt" transform="matrix(0.75, 0, 0, 0.75, 66.748447, 149.914692)" fill="none" stroke-linejoin="miter" d="M 51.76769 21.421034 L 51.76769 71.999154 L 65.720814 71.999154 L 65.720814 35.728324 L 79.658313 71.999154 L 87.75727 71.999154 L 101.851019 35.587699 L 101.694769 71.999154 L 115.647893 71.999154 L 115.647893 21.421034 L 95.554145 21.421034 L 83.788521 52.134573 L 72.002063 21.421034 Z M 151.340598 34.707491 C 137.033307 34.707491 129.002058 42.077282 129.002058 53.936656 C 129.002058 65.790821 137.101016 73.165821 151.481223 73.165821 C 163.335388 73.165821 170.778096 68.17103 173.090596 59.931447 L 159.720805 59.931447 C 158.272889 62.967905 155.517681 64.624155 151.481223 64.624155 C 146.205181 64.624155 142.96039 61.801238 142.074974 56.827281 L 173.444762 56.827281 C 173.585387 55.894989 173.653096 55.009572 173.653096 53.936656 C 173.653096 42.077282 165.647888 34.707491 151.340598 34.707491 Z M 160.29893 49.967906 L 142.30414 49.967906 C 143.382265 45.624157 146.486431 43.243949 151.340598 43.243949 C 156.101014 43.243949 159.20518 45.697073 160.29893 49.967906 Z M 217.512466 21.421034 L 217.512466 38.973116 C 214.476008 36.223116 210.226009 34.707491 204.793718 34.707491 C 192.88226 34.707491 186.444761 42.077282 186.444761 53.936656 C 186.444761 65.790821 192.88226 73.165821 204.793718 73.165821 C 211.090592 73.165821 215.7833 71.134571 218.81455 67.519988 L 220.335383 71.999154 L 230.37184 71.999154 L 230.37184 21.421034 Z M 217.512466 54.868947 C 217.512466 60.217905 214.267675 63.551238 208.408301 63.551238 C 202.408301 63.551238 199.304135 59.931447 199.304135 53.936656 C 199.304135 47.936656 202.408301 44.322073 208.408301 44.322073 C 214.267675 44.322073 217.512466 47.655406 217.512466 52.999156 Z M 244.606214 35.868949 L 244.606214 71.999154 L 257.470796 71.999154 L 257.470796 35.868949 Z M 244.606214 21.421034 L 244.606214 30.665825 L 257.470796 30.665825 L 257.470796 21.421034 Z M 271.772878 21.421034 L 271.772878 71.999154 L 285.658293 71.999154 L 285.658293 51.410614 L 314.486416 51.410614 L 314.486416 42.009574 L 285.658293 42.009574 L 285.658293 32.113741 L 321.278082 32.113741 L 321.278082 21.421034 Z M 333.62183 35.868949 L 333.62183 71.999154 L 346.481204 71.999154 L 346.481204 35.868949 Z M 333.62183 21.421034 L 333.62183 30.665825 L 346.481204 30.665825 L 346.481204 21.421034 Z M 358.548911 35.868949 L 372.783285 53.936656 L 358.548911 71.999154 L 373.439535 71.999154 L 380.882243 61.801238 L 388.32495 71.999154 L 403.199949 71.999154 L 388.9812 53.936656 L 403.199949 35.868949 L 388.32495 35.868949 L 380.882243 46.066865 L 373.439535 35.868949 Z M 358.548911 35.868949 " stroke="#fefffd" stroke-width="8.12952" stroke-opacity="1" stroke-miterlimit="4"/><g fill="#1875c1" fill-opacity="1"><g transform="translate(103.299232, 203.914697)"><g><path d="M 2.277344 -37.9375 L 2.277344 0 L 12.734375 0 L 12.734375 -27.207031 L 23.195312 0 L 29.265625 0 L 39.832031 -27.3125 L 39.726562 0 L 50.183594 0 L 50.183594 -37.9375 L 35.117188 -37.9375 L 26.285156 -14.902344 L 17.449219 -37.9375 Z M 2.277344 -37.9375 "/></g></g></g><g fill="#1875c1" fill-opacity="1"><g transform="translate(161.768521, 203.914697)"><g><path d="M 18.480469 -27.964844 C 7.75 -27.964844 1.734375 -22.4375 1.734375 -13.546875 C 1.734375 -4.660156 7.804688 0.867188 18.589844 0.867188 C 27.476562 0.867188 33.058594 -2.871094 34.792969 -9.050781 L 24.765625 -9.050781 C 23.683594 -6.773438 21.625 -5.527344 18.589844 -5.527344 C 14.632812 -5.527344 12.195312 -7.640625 11.542969 -11.382812 L 35.0625 -11.382812 C 35.171875 -12.085938 35.226562 -12.734375 35.226562 -13.546875 C 35.226562 -22.4375 29.210938 -27.964844 18.480469 -27.964844 Z M 25.199219 -16.53125 L 11.707031 -16.53125 C 12.519531 -19.78125 14.847656 -21.570312 18.480469 -21.570312 C 22.058594 -21.570312 24.386719 -19.726562 25.199219 -16.53125 Z M 25.199219 -16.53125 "/></g></g></g><g fill="#1875c1" fill-opacity="1"><g transform="translate(204.848585, 203.914697)"><g><path d="M 25.039062 -37.9375 L 25.039062 -24.765625 C 22.761719 -26.828125 19.5625 -27.964844 15.5 -27.964844 C 6.558594 -27.964844 1.734375 -22.4375 1.734375 -13.546875 C 1.734375 -4.660156 6.558594 0.867188 15.5 0.867188 C 20.214844 0.867188 23.738281 -0.648438 26.011719 -3.359375 L 27.152344 0 L 34.683594 0 L 34.683594 -37.9375 Z M 25.039062 -12.84375 C 25.039062 -8.832031 22.597656 -6.339844 18.210938 -6.339844 C 13.710938 -6.339844 11.382812 -9.050781 11.382812 -13.546875 C 11.382812 -18.046875 13.710938 -20.757812 18.210938 -20.757812 C 22.597656 -20.757812 25.039062 -18.265625 25.039062 -14.253906 Z M 25.039062 -12.84375 "/></g></g></g><g fill="#1875c1" fill-opacity="1"><g transform="translate(247.928648, 203.914697)"><g><path d="M 2.277344 -27.097656 L 2.277344 0 L 11.921875 0 L 11.921875 -27.097656 Z M 2.277344 -37.9375 L 2.277344 -31 L 11.921875 -31 L 11.921875 -37.9375 Z M 2.277344 -37.9375 "/></g></g></g><g fill="#1875c1" fill-opacity="1"><g transform="translate(268.249992, 203.914697)"><g><path d="M 2.332031 -37.9375 L 2.332031 0 L 12.734375 0 L 12.734375 -15.445312 L 34.359375 -15.445312 L 34.359375 -22.492188 L 12.734375 -22.492188 L 12.734375 -29.914062 L 39.453125 -29.914062 L 39.453125 -37.9375 Z M 2.332031 -37.9375 "/></g></g></g><g fill="#1875c1" fill-opacity="1"><g transform="translate(314.689663, 203.914697)"><g><path d="M 2.277344 -27.097656 L 2.277344 0 L 11.921875 0 L 11.921875 -27.097656 Z M 2.277344 -37.9375 L 2.277344 -31 L 11.921875 -31 L 11.921875 -37.9375 Z M 2.277344 -37.9375 "/></g></g></g><g fill="#1875c1" fill-opacity="1"><g transform="translate(335.011008, 203.914697)"><g><path d="M 0.648438 -27.097656 L 11.328125 -13.546875 L 0.648438 0 L 11.816406 0 L 17.398438 -7.640625 L 22.980469 0 L 34.144531 0 L 23.464844 -13.546875 L 34.144531 -27.097656 L 22.980469 -27.097656 L 17.398438 -19.457031 L 11.816406 -27.097656 Z M 0.648438 -27.097656 "/></g></g></g><g clip-path="url(#00f11f2266)"><path fill="#1875c1" d="M 67.21875 184.695312 L 65.554688 183.378906 L 63.375 174.117188 L 60.113281 194.429688 L 58.804688 202.546875 L 55.414062 202.449219 L 54.609375 194.429688 L 51.941406 167.925781 L 51.871094 167.214844 L 51.8125 167.925781 L 49.652344 194.429688 L 49.453125 196.886719 L 46.199219 197.472656 L 44.769531 194.429688 L 42.191406 188.9375 L 39.871094 184 L 12.355469 184.195312 L 12.355469 194.429688 L 42.191406 194.429688 L 42.191406 224.269531 L 68.699219 224.269531 L 68.699219 194.429688 L 98.535156 194.429688 L 98.535156 184.695312 L 67.21875 184.695312 " fill-opacity="1" fill-rule="nonzero"/></g><g clip-path="url(#1f7d09af71)"><path fill="#8dc740" d="M 68.699219 167.925781 L 68.699219 138.089844 L 42.191406 138.089844 L 42.191406 167.925781 L 12.355469 167.925781 L 12.355469 180.773438 L 40.929688 180.566406 L 42.191406 181.355469 L 42.5 181.550781 L 46.5625 190.203125 L 48.378906 167.925781 L 49.988281 148.21875 L 53.394531 148.183594 L 55.378906 167.925781 L 57.507812 189.070312 L 60.90625 167.925781 L 61.371094 165.035156 L 64.722656 164.914062 L 65.433594 167.925781 L 68.574219 181.277344 L 98.535156 181.277344 L 98.535156 167.925781 L 68.699219 167.925781 " fill-opacity="1" fill-rule="nonzero"/></g></svg>