<svg xmlns="http://www.w3.org/2000/svg" xmlns:xlink="http://www.w3.org/1999/xlink" width="500" zoomAndPan="magnify" viewBox="0 0 375 374.999991" height="500" preserveAspectRatio="xMidYMid meet" version="1.0"><defs><clipPath id="282b41f350"><path d="M 0.652344 127 L 374.902344 127 L 374.902344 374.902344 L 0.652344 374.902344 Z M 0.652344 127 " clip-rule="nonzero"/></clipPath><clipPath id="a03d582ee8"><path d="M 0.652344 0.652344 L 374.902344 0.652344 L 374.902344 227 L 0.652344 227 Z M 0.652344 0.652344 " clip-rule="nonzero"/></clipPath></defs><g clip-path="url(#282b41f350)"><path fill="#1875c1" d="M 238.914062 203.054688 L 231.683594 197.339844 L 222.21875 157.105469 L 208.046875 245.328125 L 202.378906 280.578125 L 187.652344 280.148438 L 184.144531 245.328125 L 172.570312 130.230469 L 172.257812 127.132812 L 172.003906 130.230469 L 162.628906 245.328125 L 161.757812 255.984375 L 147.636719 258.53125 L 141.425781 245.328125 L 130.21875 221.464844 L 120.148438 200.039062 L 0.652344 200.886719 L 0.652344 245.328125 L 130.21875 245.328125 L 130.21875 374.898438 L 245.339844 374.898438 L 245.339844 245.328125 L 374.902344 245.328125 L 374.902344 203.054688 L 238.914062 203.054688 " fill-opacity="1" fill-rule="nonzero"/></g><g clip-path="url(#a03d582ee8)"><path fill="#8dc740" d="M 245.339844 130.230469 L 245.339844 0.660156 L 130.21875 0.660156 L 130.21875 130.230469 L 0.652344 130.230469 L 0.652344 186.019531 L 124.742188 185.121094 L 130.21875 188.542969 L 131.570312 189.390625 L 149.214844 226.972656 L 157.101562 130.230469 L 164.078125 44.640625 L 178.871094 44.5 L 187.5 130.230469 L 196.742188 222.046875 L 211.488281 130.230469 L 213.511719 117.667969 L 228.074219 117.140625 L 231.152344 130.230469 L 244.792969 188.203125 L 374.902344 188.203125 L 374.902344 130.230469 L 245.339844 130.230469 " fill-opacity="1" fill-rule="nonzero"/></g></svg>